<svg id="Capa_1" enable-background="new 0 0 496.428 496.428" height="512" viewBox="0 0 496.428 496.428" width="512" xmlns="http://www.w3.org/2000/svg"><g><path d="m58.2 242.524h-33.35c-13.72 0-24.85 11.13-24.85 24.86v24.4c0 13.73 11.13 24.86 24.85 24.86h33.35l23.934-7.163v-51.356z" fill="#efedef"/><path d="m73.551 242.524h-15.351v74.12h15.351 112.655v-74.12z" fill="#d4f2f6"/><g><g id="XMLID_141_"><g><path d="m68.603 243.281v72.605h5.585 97.988v-72.605h-97.988z" fill="#a6e7f0"/><path d="m465.06 406.214c11.34 12.58 2.41 32.65-14.53 32.65h-69.29-115.38-153.41c-10.8 0-19.56-8.75-19.56-19.55v-374.95c0-17.91 22.09-26.4 34.09-13.09l139.88 155.13 117.43 130.24zm-102.53-22.23-119.12-141.46-93.207-103.355c-.814-.903-2.313-.327-2.313.889v242.479c0 .733.594 1.327 1.327 1.327h116.643z" fill="#fee45a"/></g></g></g><g><g id="XMLID_229_"><g><path d="m381.24 438.864h24v-98.988l-20.95-23.232-117.43-130.24-25-27.726v82.127l1.55 1.719 119.12 141.46-96.67-.12h-24v55h24z" fill="#fedf30"/><path d="m380.24 7.664v481.1c0 4.22-3.42 7.64-7.64 7.64h-98.1c-4.22 0-7.64-3.42-7.64-7.64v-481.1c0-4.22 3.42-7.64 7.64-7.64h98.1c4.22 0 7.64 3.42 7.64 7.64z" fill="#f9f7f8"/></g></g></g><g fill="#efedef"><path d="m380.24 64.24h-22.398c-4.142 0-7.5 3.358-7.5 7.5s3.358 7.5 7.5 7.5h22.398z"/><path d="m380.24 129.1h-22.398c-4.142 0-7.5 3.358-7.5 7.5s3.358 7.5 7.5 7.5h22.398z"/><path d="m380.24 193.961h-22.398c-4.142 0-7.5 3.358-7.5 7.5s3.358 7.5 7.5 7.5h22.398z"/><path d="m380.24 351.384h-22.398c-4.142 0-7.5 3.358-7.5 7.5s3.358 7.5 7.5 7.5h22.398z"/><path d="m380.24 416.245h-22.398c-4.142 0-7.5 3.358-7.5 7.5s3.358 7.5 7.5 7.5h22.398z"/></g><g id="XMLID_199_"><g><path d="m494.98 276.654-32.92-23.61-18.767 1.161v48.202l18.967 3.567 32.72-23.46c1.93-1.48 1.93-4.38 0-5.86z" fill="#c9bfc8"/><path d="m462.06 253.044-14.68-10.52h-29.54l-23.951 13.628v53.676l23.951 6.816h29.54l14.88-10.67z" fill="#fae2c0"/></g></g><g><path d="m266.86 217.524h113.38v124.12h-113.38z" fill="#efedef"/><path d="m186.206 242.524h231.634v74.12h-231.634z" fill="#d4f2f6"/></g></g></svg>