<svg id="Capa_1" enable-background="new 0 0 503.659 503.659" height="512" viewBox="0 0 503.659 503.659" width="512" xmlns="http://www.w3.org/2000/svg"><g><path d="m268.055 160.53h14.008v28.66h-14.008z" fill="#fece85"/><path d="m191.855 410.922h119.948v66.654h-119.948z" fill="#d7d0d6"/><path d="m191.855 410.922h45.618v66.654h-45.618z" fill="#c9bfc8"/><path d="m3.699 350.044v32.496c0 22.3 18.08 40.38 40.38 40.38h415.5c22.3 0 40.38-18.08 40.38-40.38v-32.496z" fill="#e5e1e5"/><g><path d="m499.959 94.47v269.51h-496.26v-269.51c0-26.36 21.37-47.73 47.73-47.73h12.83 375.14 12.83c26.36 0 47.73 21.37 47.73 47.73z" fill="#a6e7f0"/></g><path d="m69.26 382.54v-32.496h-65.561v32.496c0 22.3 18.08 40.38 40.38 40.38h65.56c-22.299 0-40.379-18.08-40.379-40.38z" fill="#d7d0d6"/><path d="m116.99 46.74h-52.73-12.83c-26.36 0-47.73 21.37-47.73 47.73v269.51h65.56v-269.51c0-26.36 21.37-47.73 47.73-47.73z" fill="#a6e7f0"/><g id="XMLID_285_"><g><path d="m469.959 94.47v221.78c0 9.78-7.95 17.73-17.73 17.73h-400.8c-9.78 0-17.73-7.95-17.73-17.73v-221.78c0-9.78 7.95-17.73 17.73-17.73h12.83 375.14 12.83c9.78 0 17.73 7.95 17.73 17.73z" fill="#9cf8d2"/></g></g><path d="m69.26 94.47c0-6.268 1.22-12.247 3.416-17.73h-8.417-12.83c-9.78 0-17.73 7.95-17.73 17.73v221.78c0 9.78 7.95 17.73 17.73 17.73h17.83v-239.51z" fill="#6cf5c2"/><path d="m337.82 496.159h-171.981v-16.738c0-9.304 7.542-16.846 16.846-16.846h138.29c9.304 0 16.846 7.542 16.846 16.846v16.738z" fill="#e5e1e5"/><path d="m239.195 462.575h-56.511c-9.304 0-16.846 7.542-16.846 16.846v16.738h56.511v-16.738c0-9.304 7.542-16.846 16.846-16.846z" fill="#d7d0d6"/><g><path d="m358.984 503.659h-214.084c-4.142 0-7.5-3.358-7.5-7.5s3.358-7.5 7.5-7.5h214.084c4.142 0 7.5 3.358 7.5 7.5s-3.358 7.5-7.5 7.5z" fill="#d7d0d6"/></g><g><g id="XMLID_286_"><g><path d="m407.849 65.04-1.5 1.5h-57.21c-3.52 0-6.38-2.86-6.38-6.38v-58.21l1-1z" fill="#f9f7f8"/><path d="m342.759 1.95v58.21c0 3.52 2.86 6.38 6.38 6.38h57.21l1.5-1.5 1.55 1.55v267.39h-315.14v-326.6c0-4.08 3.31-7.38 7.38-7.38h241.17l.95.95z" fill="#f9f7f8"/><g><path d="m407.849 65.04-1.5 1.5h3z" fill="#fae2c0"/><path d="m148.11 0h-46.471c-4.07 0-7.38 3.3-7.38 7.38v326.6h46.471v-326.6c0-4.08 3.31-7.38 7.38-7.38z" fill="#efedef"/></g></g></g></g><g id="XMLID_287_"><g><path d="m230.599 42.7v291.28h-79.87v-291.28c0-3.29 2.67-5.95 5.95-5.95h67.97c3.29 0 5.95 2.66 5.95 5.95z" fill="#fee45a"/></g></g><g fill="#fed402"><path d="m150.729 84.241h16.731c4.142 0 7.5-3.358 7.5-7.5s-3.358-7.5-7.5-7.5h-16.731z"/><path d="m150.729 120.495h16.731c4.142 0 7.5-3.358 7.5-7.5s-3.358-7.5-7.5-7.5h-16.731z"/><path d="m150.729 156.75h16.731c4.142 0 7.5-3.358 7.5-7.5s-3.358-7.5-7.5-7.5h-16.731z"/><path d="m150.729 193.004h16.731c4.142 0 7.5-3.358 7.5-7.5s-3.358-7.5-7.5-7.5h-16.731z"/><path d="m150.729 229.258h16.731c4.142 0 7.5-3.358 7.5-7.5s-3.358-7.5-7.5-7.5h-16.731z"/><path d="m150.729 265.512h16.731c4.142 0 7.5-3.358 7.5-7.5s-3.358-7.5-7.5-7.5h-16.731z"/><path d="m150.729 301.767h16.731c4.142 0 7.5-3.358 7.5-7.5s-3.358-7.5-7.5-7.5h-16.731z"/></g><g id="XMLID_288_"><g><path d="m345.607 180.769c-.184-.122-30.907 0-30.907 0l-2.9 8.421v144.79h39.5v-144.79c-.001 0-5.51-8.298-5.693-8.421z" fill="#fece85"/><path d="m310.142 179.383h-30.475l-7.358 9.807v144.79h39.49v-144.79z" fill="#fec165"/><path d="m313.639 99.49c-.84-1.37-2.83-1.37-3.68 0l-37.65 61.04 14.282 14.33h51.221l13.486-14.33z" fill="#fae2c0"/><path d="m351.299 160.53v28.66h-39.5-39.49v-28.66z" fill="#efedef"/></g></g><circle cx="251.942" cy="392.692" fill="#c9bfc8" r="7.372"/><path d="m406.349 66.54h-57.21c-3.52 0-6.38-2.86-6.38-6.38v-58.21l1-1-.95-.95h-13.05v60.16c0 10.687 8.694 19.38 19.38 19.38h60.26v-12.95l-1.55-1.55z" fill="#efedef"/></g></svg>