<svg id="Capa_1" enable-background="new 0 0 496.976 496.976" height="512" viewBox="0 0 496.976 496.976" width="512" xmlns="http://www.w3.org/2000/svg"><g><g><g><g id="XMLID_10_"><g><path d="m420.284 14.426c-8.82-8.82-21.01-14.27-34.47-14.27h-335.98v39.55l48.73 46.59v324.54 37.4c0 13.46 5.46 25.65 14.27 34.47 8.755 8.755 20.829 14.189 34.161 14.269 11.572.07 22.233-4.095 30.643-10.993h256.916v-56.146-380.94c0-13.46-5.45-25.65-14.27-34.47z" fill="#f9f7f8"/></g></g></g></g><path d="m197.687 441.008c-16.977 0-30.74-13.763-30.74-30.74v-344.482c0-.163-.001-.326-.003-.49-.15-12.244 9.796-22.226 22.041-22.226h227.541c6.232 0 12.185 1.181 17.665 3.311-.596-12.522-5.908-23.81-14.21-32.112-8.82-8.819-21.01-14.269-34.47-14.269h-267.293-13.822-54.865v39.55l48.73 46.59v324.54 37.4c0 13.46 5.46 25.65 14.27 34.47 3.881 3.881 8.417 7.106 13.424 9.504.285.139.579.261.866.394.407.185.812.375 1.226.549 5.822 2.51 12.218 3.937 18.947 3.978 11.572.07 22.233-4.095 30.643-10.993h256.916v-44.974z" fill="#efedef"/><path d="m187.137 344.706h-38.971v38.023c0 10.762 8.724 19.485 19.485 19.485 10.762 0 19.485-8.724 19.485-19.485v-38.023z" fill="#c9bfc8"/><g><path d="m219.867 318.595h-47.794c-4.142 0-7.5-3.358-7.5-7.5s3.358-7.5 7.5-7.5h47.794c2.233 0 4.049-1.816 4.049-4.049v-67.75c0-4.142 3.358-7.5 7.5-7.5s7.5 3.358 7.5 7.5v67.75c.001 10.503-8.545 19.049-19.049 19.049z" fill="#a6e7f0"/></g><path d="m197.366 87.21-12.291-10.821h-33.654l-3.213 2.578v281.179h1.77l34.348.691 12.372-5.101c.879-2.022 1.374-4.25 1.374-6.595v-260.661z" fill="#d4f2f6"/><path d="m175.336 355.748c-9.15 0-16.57-7.42-16.57-16.57v-260.66l.705-1.27 1.071-.86h-9.122l-13.483 10.822-.705 1.27v260.66c0 9.15 7.42 16.57 16.57 16.57h27.7c6.8 0 12.645-4.1 15.199-9.96z" fill="#a6e7f0"/><path d="m137.23 291.481h60.843v32.663h-60.843z" fill="#a6e7f0"/><path d="m137.231 291.481h21.535v32.663h-21.535z" fill="#62dbfb"/><circle cx="325.655" cy="128.174" fill="#9cf8d2" r="62.058"/><g><path d="m316.669 155.184c-1.134 0-2.28-.257-3.351-.792l-11.977-5.988c-3.704-1.852-5.206-6.357-3.354-10.062s6.356-5.208 10.063-3.354l6.543 3.271 26.156-32.814c2.583-3.239 7.303-3.771 10.54-1.19 3.239 2.582 3.771 7.301 1.19 10.54l-29.942 37.564c-1.462 1.834-3.642 2.825-5.868 2.825z" fill="#f9f7f8"/></g><path d="m49.528.003c-26.914 0-48.733 21.818-48.733 48.733v33.249c0 2.298 1.863 4.16 4.16 4.16h93.305v-37.409c.001-26.915-21.818-48.733-48.732-48.733z" fill="#e5e1e5"/><path d="m496.181 434.52v13.56c0 13.46-5.46 25.65-14.27 34.47-8.82 8.82-21.01 14.27-34.46 14.27h-300.46c26.92 0 48.73-21.82 48.73-48.74v-15.33c0-1.696 1.375-3.07 3.07-3.07h235.46 57.09c2.673 0 4.84 2.167 4.84 4.84z" fill="#e5e1e5"/><g id="XMLID_277_"><g><path d="m172.471 42.39 24.89 44.82h-59.42l24.89-44.82c2.1-3.78 7.54-3.78 9.64 0z" fill="#c9bfc8"/></g></g><path d="m178.064 52.461-5.593-10.071c-2.1-3.78-7.54-3.78-9.64 0l-24.89 44.82h20.825z" fill="#baafb9"/></g></svg>